<?xml version="1.0" encoding="iso-8859-1"?>
<!-- Uploaded to: SVG Repo, www.svgrepo.com, Generator: SVG Repo Mixer Tools -->
<svg height="800px" width="800px" version="1.1" id="Capa_1" xmlns="http://www.w3.org/2000/svg" xmlns:xlink="http://www.w3.org/1999/xlink" 
	 viewBox="0 0 388.728 388.728" xml:space="preserve">
<g>
	<path style="fill:#D4B783;" d="M220.065,164.42l-23.645,23.646c-4.911,4.911-11.44,7.615-18.385,7.615
		c-6.945,0-13.474-2.705-18.385-7.616c-4.911-4.91-7.615-11.439-7.615-18.384c0-6.945,2.705-13.474,7.616-18.385l23.645-23.646
		l-19.34-19.34c-10.662,19.135-33.184,59.562-57.261,102.814c25.188,22.642,56.587,37.112,89.84,41.789l64.88-47.143L220.065,164.42
		z"/>
	<path style="fill:#D4B783;" d="M57.556,299.457c-19.381,34.876-34.074,61.383-36.239,65.472c-0.303,0.573-1.176,2.222-1.336,3.032
		c0.071,0.095,0.188,0.235,0.37,0.417c0.182,0.182,0.322,0.298,0.417,0.37c0.81-0.16,2.459-1.033,3.032-1.336
		c4.015-2.126,29.652-16.335,63.603-35.2l19.339-14.052C89.67,313.922,73.223,307.69,57.556,299.457z"/>
	<path style="fill:#D4B783;" d="M96.745,228.999c-10.042,18.042-20.105,36.13-29.469,52.972
		c19.281,10.073,39.849,16.855,61.384,20.261l45.765-33.254C145.947,261.905,119.272,248.284,96.745,228.999z"/>
	<path style="fill:#FDFFD0;" d="M318.057,33.231C303.014,24.601,285.912,20,268.102,20c-26.878,0-52.147,10.467-71.153,29.473
		c-11.338,11.338-19.239,24.304-24.047,39.5l31.607,31.606c3.905,3.905,3.905,10.237,0,14.143l-30.717,30.716
		c-1.133,1.134-1.757,2.64-1.757,4.243c0,1.603,0.624,3.109,1.757,4.242c1.134,1.134,2.64,1.758,4.243,1.758
		c1.602,0,3.109-0.625,4.243-1.758l30.716-30.716c1.953-1.953,4.512-2.929,7.071-2.929c2.559,0,5.119,0.976,7.071,2.929
		l51.114,51.114C342.514,149.65,362.791,80.433,318.057,33.231z M228.701,81.226c-3.905,3.904-10.237,3.904-14.143,0
		c-3.905-3.905-3.905-10.237,0-14.143c14.282-14.282,33.297-22.147,53.543-22.147c20.246,0,39.261,7.865,53.543,22.147
		c3.905,3.905,3.905,10.237,0,14.143c-1.953,1.952-4.512,2.929-7.071,2.929c-2.559,0-5.119-0.977-7.071-2.929
		C285.777,59.5,250.427,59.499,228.701,81.226z"/>
	<path d="M314.574,84.154c2.559,0,5.119-0.977,7.071-2.929c3.905-3.905,3.905-10.237,0-14.143
		c-14.282-14.282-33.297-22.147-53.543-22.147c-20.246,0-39.261,7.865-53.543,22.147c-3.905,3.905-3.905,10.237,0,14.143
		c3.905,3.904,10.237,3.904,14.143,0c21.726-21.727,57.076-21.726,78.801,0C309.455,83.178,312.015,84.154,314.574,84.154z"/>
	<path d="M353.397,35.331C330.614,12.547,300.322,0,268.102,0c-32.22,0-62.512,12.547-85.295,35.331
		c-14.735,14.735-24.987,32.483-30.486,52.771c-5.21,9.35-35.118,63.02-66.785,119.909c-0.077,0.13-0.15,0.262-0.22,0.395
		C47.59,276.181,7.443,348.39,3.641,355.572c-5.6,10.579-4.737,19.646,2.566,26.949c4.137,4.137,8.84,6.207,14.063,6.207
		c3.997,0,8.3-1.213,12.886-3.641c13.225-7.002,246.962-137.251,267.47-148.679c20.287-5.499,38.035-15.751,52.771-30.486
		c22.783-22.783,35.331-53.075,35.331-85.295C388.728,88.406,376.181,58.114,353.397,35.331z M87.402,332.211
		c-33.951,18.865-59.588,33.074-63.603,35.2c-0.573,0.303-2.222,1.176-3.032,1.336c-0.095-0.071-0.235-0.188-0.417-0.37
		c-0.182-0.182-0.298-0.322-0.37-0.417c0.16-0.81,1.033-2.459,1.336-3.032c2.164-4.088,16.858-30.596,36.239-65.472
		c15.667,8.233,32.114,14.464,49.185,18.702c1.373,0.341,2.742,0.695,4.123,1.01C102.733,323.69,94.869,328.062,87.402,332.211z
		 M138.867,303.593c-3.426-0.368-6.827-0.826-10.206-1.361c-21.535-3.406-42.103-10.189-61.384-20.261
		c9.364-16.842,19.427-34.93,29.469-52.972c22.527,19.285,49.203,32.906,77.681,39.979c6.508,1.617,13.11,2.892,19.779,3.814
		C176.23,282.799,157.305,293.334,138.867,303.593z M227.18,254.429c-10.306,0.431-20.56-0.097-30.646-1.516
		c-33.253-4.677-64.653-19.147-89.84-41.789c24.077-43.252,46.599-83.679,57.261-102.814l19.34,19.34l-23.645,23.646
		c-4.911,4.911-7.616,11.44-7.616,18.385c0,6.945,2.705,13.474,7.615,18.384c4.911,4.911,11.44,7.616,18.385,7.616
		c6.945,0,13.474-2.705,18.385-7.615l23.645-23.646l41.35,41.35l19.003,19.003C268.97,231.151,249.913,241.768,227.18,254.429z
		 M339.255,191.779c-11.338,11.338-24.305,19.239-39.5,24.047l-21.505-21.505l-51.114-51.114c-1.953-1.953-4.512-2.929-7.071-2.929
		c-2.559,0-5.119,0.976-7.071,2.929l-30.716,30.716c-1.133,1.133-2.64,1.758-4.243,1.758c-1.603,0-3.109-0.624-4.243-1.758
		c-1.133-1.133-1.757-2.64-1.757-4.242c0-1.603,0.624-3.109,1.757-4.243l30.717-30.716c3.905-3.905,3.905-10.237,0-14.143
		l-31.607-31.606c4.808-15.196,12.709-28.162,24.047-39.5C215.954,30.467,241.224,20,268.102,20
		c17.811,0,34.913,4.601,49.956,13.231c7.659,4.394,14.786,9.83,21.198,16.242c19.006,19.005,29.473,44.275,29.473,71.153
		C368.728,147.504,358.261,172.774,339.255,191.779z"/>
</g>
</svg>