<?xml version="1.0" encoding="iso-8859-1"?>
<!-- Uploaded to: SVG Repo, www.svgrepo.com, Generator: SVG Repo Mixer Tools -->
<!DOCTYPE svg PUBLIC "-//W3C//DTD SVG 1.1//EN" "http://www.w3.org/Graphics/SVG/1.1/DTD/svg11.dtd">
<svg fill="#000000" height="800px" width="800px" version="1.1" id="Capa_1" xmlns="http://www.w3.org/2000/svg" xmlns:xlink="http://www.w3.org/1999/xlink" 
	 viewBox="0 0 256.624 256.624" xml:space="preserve">
<g>
	<path d="M176.591,84.912c8.273-21.265,13.047-45.287-3.316-64.016C159.785,5.459,136.154-2.423,116.041,0.66
		c-39.721,6.088-57.95,55.025-30.421,84.538c-6.822,2.992-10.533,9.849-11.769,17.432c-1.47,9.023-1.939,22.559,6.077,28.983
		c4.03,3.23,8.983,3.753,13.072,1.688c4.433,25.709,11.36,51.009,18.394,76.112c4.246,15.154,6.289,33.998,16.632,46.339
		c1.444,1.723,4.3,0.68,4.85-1.281c13.376-47.706,25.23-95.756,35.074-144.319c0.018-0.091-0.01-0.164,0.001-0.252
		c1.614,0.081,3.263-0.168,4.837-0.913c9.547-4.515,9.309-16.339,3.505-23.61C176.392,85.221,176.518,85.1,176.591,84.912z
		 M162.365,108.612c-4.441,20.751-8.977,41.478-13.901,62.12c-4.277,17.93-6.543,52.225-16.97,66.848
		c-7.343,10.298-5.474,1.504-8.676-9.146c-3.078-10.236-6.05-20.502-8.918-30.798c-6.171-22.154-11.28-44.605-17.743-66.672
		c0.42-0.428,0.847-0.844,1.222-1.35c4.002-5.388,4.57-13.393,3.664-20.634c2.552,1.297,5.538,1.801,8.52,1.209
		c4.165-0.827,9.38-4.674,11.458-9.193c2.364,4.225,7.235,6.843,12.33,5.822c3.194-0.64,6.593-3.216,8.582-6.403
		c1.533,3.407,5.029,6.084,8.945,6.109c2.71,0.017,5.347-1.237,7.4-3.144c0.82,1.966,2.364,3.646,4.266,4.823
		C162.49,108.347,162.401,108.447,162.365,108.612z M170.012,86.525c3.379,4.333,6.969,10.33,2.551,15.381
		c-1.659,1.897-4.263,3.214-6.736,2.252c-2.718-1.057-4.511-4.464-3.333-7.25c0.371-0.877,0.066-1.603-0.43-2.105
		c-0.055-1.042-0.238-2.083-0.705-3.088c-0.746-1.608-2.887-0.884-3.402,0.445c-1.306,3.372-2.117,7.581-6.17,8.671
		c-3.832,1.03-7.343-3.231-6.172-6.822c0.556-1.705-1.408-2.616-2.672-1.84c-0.103-0.233-0.124-0.476-0.255-0.704
		c-1.116-1.948-4.035-1.456-4.664,0.609c-1.158,3.805-0.824,7.962-5.628,9.37c-4.264,1.249-8.437-1.814-10.226-5.495
		c-0.091-0.188-0.267-0.263-0.421-0.369c-0.028-0.123-0.003-0.248-0.038-0.371c-0.43-1.532-2.633-2.317-3.763-0.994
		c-2.912,3.41-3.053,7.844-7.479,10.259c-3.479,1.898-7.587,1.211-10.441-1.157c-0.244-1.007-0.501-1.995-0.785-2.909
		c-0.582-1.875-3.047-1.93-3.933-0.53c-0.467,0.355-0.81,0.873-0.618,1.544c0.072,0.253,0.198,0.473,0.285,0.717
		c0.216,4.445,0.716,8.885,0.482,13.34c-0.116,2.219,0.14,5.68-1.202,7.623c-4.509,6.529-10.79,6.647-13.87-0.952
		c-4.678-11.545-1.185-29.415,10.162-35.304c1.647-0.855,0.453-3.182-1.203-2.853c-0.122,0.024-0.224,0.075-0.345,0.102
		c-0.041-0.198,0.023-0.387-0.109-0.585c-10.922-16.502-12.432-35.689-6.116-50.867c0.732,4.138,3.179,7.923,7.435,10.236
		c19.434,10.561,30.44-20.255,50.186,3.498c6.609,7.951,12.686,18.359,24.562,11.339c9.551-5.646,10.225-17.023,8.325-27.415
		c9.489,15.885,4.907,34.84-1.33,51.575C169.959,81.726,168.622,84.742,170.012,86.525z"/>
	<path d="M132.514,204.588c-1.489,2.191-2.893,4.466-4.238,6.775c-0.609-0.46-1.23-0.904-1.805-1.407
		c-1.955-1.712-3.721-3.615-5.429-5.57c-0.952-1.09-2.878,0.361-2.027,1.564c2.062,2.916,4.689,5.934,7.692,8.254
		c-0.521,0.951-1.078,1.888-1.572,2.846c-0.672,1.303,1.115,2.313,1.944,1.136c0.589-0.837,1.134-1.719,1.706-2.575
		c0.815,0.495,1.622,1.015,2.486,1.368c1.248,0.509,2.2-1.357,1.285-2.208c-0.658-0.611-1.383-1.142-2.097-1.686
		c1.501-2.364,2.944-4.765,4.258-7.211C135.501,204.416,133.431,203.237,132.514,204.588z"/>
	<path d="M153.765,122.124c-0.454,0.36-0.843,0.788-1.292,1.154c-3.588-2.603-7.141-5.249-10.551-8.074
		c0.286-0.318,0.541-0.659,0.829-0.976c1.019-1.127-0.586-2.759-1.677-1.677c-0.354,0.351-0.674,0.734-1.025,1.088
		c-0.782-0.676-1.617-1.286-2.379-1.988c-1.516-1.396-3.763,0.825-2.271,2.271c0.765,0.742,1.557,1.448,2.339,2.169
		c-3.281,3.441-6.419,7.003-9.407,10.69c-3.295-2.577-6.648-5.044-10.047-7.207c1.716-1.981,3.459-3.937,5.115-5.974
		c0.918-1.13-0.589-2.736-1.634-1.634c-1.924,2.026-3.753,4.13-5.604,6.215c-0.222-0.134-0.441-0.304-0.663-0.435
		c-1.186-0.705-2.528,0.967-1.492,1.933c0.145,0.136,0.306,0.254,0.453,0.389c-3.287,3.764-6.518,7.576-9.704,11.438
		c-0.833,1.01,0.539,2.455,1.465,1.465c3.457-3.695,6.856-7.431,10.199-11.218c3.105,2.718,6.303,5.34,9.464,8
		c-2.184,2.815-4.261,5.71-6.277,8.652c-2.386-2.048-4.831-4.012-7.448-5.697c-0.794-0.512-1.418,0.569-0.927,1.202
		c1.97,2.546,4.225,4.901,6.557,7.194c-1.872,2.837-3.703,5.703-5.42,8.645c-0.582,0.997,0.892,1.824,1.529,0.894
		c1.819-2.651,3.825-5.144,5.715-7.733c2.665,2.526,5.402,4.974,8.028,7.452c-2.819,4.04-5.43,8.207-7.836,12.515
		c-2.796-2.38-5.553-4.818-8.198-7.43c-0.807-0.797-1.955,0.39-1.231,1.231c2.508,2.913,5.203,5.843,7.985,8.728
		c-0.485,0.908-1.064,1.762-1.531,2.68c-0.592,1.164,1.099,2.176,1.762,1.03c0.424-0.732,0.918-1.397,1.352-2.12
		c2.747,2.763,5.61,5.435,8.598,7.89c-2.511,3.188-4.827,6.516-6.909,9.994c-1.212-1.145-2.418-2.301-3.542-3.593
		c-1.214-1.394-3.091,0.602-1.995,1.995c1.21,1.539,2.509,3.075,3.878,4.571c-0.524,0.962-1.117,1.885-1.602,2.869
		c-0.586,1.189,1.07,2.182,1.788,1.045c0.472-0.748,0.967-1.471,1.445-2.213c2.342,2.378,4.911,4.545,7.668,6.365
		c-2.13,2.836-4.117,5.776-5.811,8.865c-0.619,1.13,0.997,2.045,1.711,1c2.007-2.935,4.104-5.763,6.247-8.557
		c1.583,0.889,3.207,1.686,4.918,2.267c1.44,0.488,1.959-1.471,0.949-2.249c-1.236-0.953-2.466-1.854-3.701-2.772
		c2.267-2.827,4.587-5.61,7.099-8.278c0.902-0.958-0.484-2.344-1.443-1.443c-2.715,2.55-5.269,5.318-7.662,8.219
		c-2.754-2.047-5.474-4.106-8.055-6.355c2.289-3.446,4.677-6.806,7.184-10.073c2.399,1.842,4.856,3.576,7.426,5.04
		c1.348,0.768,2.958-1.138,1.71-2.216c-2.261-1.954-4.567-3.82-6.869-5.694c2.219-2.745,4.509-5.44,6.983-8.018
		c1.071-1.115-0.598-2.789-1.698-1.698c-2.567,2.546-4.991,5.246-7.333,8.018c-3.117-2.521-6.238-5.024-9.315-7.592
		c2.573-4.123,5.289-8.117,8.156-11.97c4.587,4.471,9.114,9.198,14.344,12.839c1.642,1.143,3.118-1.25,2.001-2.593
		c-4.055-4.878-9.158-9.065-14.068-13.242c2.166-2.791,4.405-5.531,6.723-8.199c1.751,1.583,3.488,3.182,5.318,4.676
		c1.536,1.255,3.492-0.655,2.186-2.186c-1.536-1.802-3.296-3.542-5.017-5.293c3.537-3.92,7.224-7.737,11.084-11.434
		c0.159,0.09,0.298,0.204,0.458,0.292c1.624,0.899,2.835-1.205,1.659-2.373c0.362-0.339,0.689-0.699,1.054-1.036
		C156.697,122.765,154.975,121.166,153.765,122.124z M129.733,147.429c-0.369-0.321-0.754-0.64-1.118-0.963
		c-2.323-2.061-4.627-4.207-6.976-6.301c2.134-2.861,4.172-5.805,6.394-8.595c0.385,0.333,0.785,0.649,1.166,0.985
		c2.43,2.143,4.794,4.359,7.176,6.554C134.054,141.801,131.841,144.565,129.733,147.429z M139.055,136.099
		c-2.695-2.596-5.54-5.118-8.482-7.522c2.956-3.629,5.992-7.199,9.096-10.718c3.227,2.831,6.687,5.353,10.33,7.629
		C146.134,128.813,142.489,132.351,139.055,136.099z"/>
</g>
</svg>